<?xml version="1.0" encoding="UTF-8" standalone="no"?>
<!DOCTYPE svg PUBLIC "-//W3C//DTD SVG 1.1//EN"
 "http://www.w3.org/Graphics/SVG/1.1/DTD/svg11.dtd">
<!-- Generated by graphviz version 2.47.3 (20210619.1520)
 -->
<!-- Title: dependencies Pages: 1 -->
<svg width="2097pt" height="247pt"
 viewBox="0.00 0.00 2097.00 246.80" xmlns="http://www.w3.org/2000/svg" xmlns:xlink="http://www.w3.org/1999/xlink">
<g id="graph0" class="graph" transform="scale(1 1) rotate(0) translate(4 242.8)">
<title>dependencies</title>
<polygon fill="white" stroke="transparent" points="-4,4 -4,-242.8 2093,-242.8 2093,4 -4,4"/>
<text text-anchor="middle" x="1044.5" y="-8.2" font-family="sans-serif" font-size="14.00">dependencies</text>
<g id="clust1" class="cluster">
<title>cluster_AppModule</title>
<polygon fill="none" stroke="black" stroke-dasharray="1,5" points="8,-32.8 8,-230.8 2081,-230.8 2081,-32.8 8,-32.8"/>
</g>
<g id="clust14" class="cluster">
<title>cluster_AppModule_imports</title>
<polygon fill="none" stroke="black" points="1929,-40.8 1929,-92.8 2073,-92.8 2073,-40.8 1929,-40.8"/>
</g>
<g id="clust16" class="cluster">
<title>cluster_AppModule_bootstrap</title>
<polygon fill="none" stroke="black" points="1049,-170.8 1049,-222.8 1173,-222.8 1173,-170.8 1049,-170.8"/>
</g>
<g id="clust2" class="cluster">
<title>cluster_AppModule_declarations</title>
<polygon fill="none" stroke="black" points="16,-40.8 16,-92.8 1921,-92.8 1921,-40.8 16,-40.8"/>
</g>
<!-- AppComponent -->
<g id="node1" class="node">
<title>AppComponent</title>
<polygon fill="#ffffb3" stroke="black" points="1912.94,-84.8 1807.06,-84.8 1807.06,-48.8 1912.94,-48.8 1912.94,-84.8"/>
<text text-anchor="middle" x="1860" y="-62.6" font-family="Times,serif" font-size="14.00">AppComponent</text>
</g>
<!-- AppModule -->
<g id="node12" class="node">
<title>AppModule</title>
<polygon fill="#8dd3c7" stroke="black" points="1152.66,-149.8 1149.66,-153.8 1128.66,-153.8 1125.66,-149.8 1069.34,-149.8 1069.34,-113.8 1152.66,-113.8 1152.66,-149.8"/>
<text text-anchor="middle" x="1111" y="-127.6" font-family="Times,serif" font-size="14.00">AppModule</text>
</g>
<!-- AppComponent&#45;&gt;AppModule -->
<g id="edge1" class="edge">
<title>AppComponent&#45;&gt;AppModule</title>
<path fill="none" stroke="black" d="M1860,-85.08C1860,-106.12 1860,-137.8 1860,-137.8 1860,-137.8 1162.87,-137.8 1162.87,-137.8"/>
<polygon fill="black" stroke="black" points="1162.87,-134.3 1152.87,-137.8 1162.87,-141.3 1162.87,-134.3"/>
</g>
<!-- DirectorCardComponent -->
<g id="node2" class="node">
<title>DirectorCardComponent</title>
<polygon fill="#ffffb3" stroke="black" points="1789.68,-84.8 1634.32,-84.8 1634.32,-48.8 1789.68,-48.8 1789.68,-84.8"/>
<text text-anchor="middle" x="1712" y="-62.6" font-family="Times,serif" font-size="14.00">DirectorCardComponent</text>
</g>
<!-- DirectorCardComponent&#45;&gt;AppModule -->
<g id="edge2" class="edge">
<title>DirectorCardComponent&#45;&gt;AppModule</title>
<path fill="none" stroke="black" d="M1712,-84.91C1712,-104.14 1712,-131.8 1712,-131.8 1712,-131.8 1162.78,-131.8 1162.78,-131.8"/>
<polygon fill="black" stroke="black" points="1162.78,-128.3 1152.78,-131.8 1162.78,-135.3 1162.78,-128.3"/>
</g>
<!-- EditProfileFormComponent -->
<g id="node3" class="node">
<title>EditProfileFormComponent</title>
<polygon fill="#ffffb3" stroke="black" points="1616.6,-84.8 1443.4,-84.8 1443.4,-48.8 1616.6,-48.8 1616.6,-84.8"/>
<text text-anchor="middle" x="1530" y="-62.6" font-family="Times,serif" font-size="14.00">EditProfileFormComponent</text>
</g>
<!-- EditProfileFormComponent&#45;&gt;AppModule -->
<g id="edge3" class="edge">
<title>EditProfileFormComponent&#45;&gt;AppModule</title>
<path fill="none" stroke="black" d="M1530,-84.82C1530,-102.17 1530,-125.8 1530,-125.8 1530,-125.8 1162.71,-125.8 1162.71,-125.8"/>
<polygon fill="black" stroke="black" points="1162.71,-122.3 1152.71,-125.8 1162.71,-129.3 1162.71,-122.3"/>
</g>
<!-- GenreCardComponent -->
<g id="node4" class="node">
<title>GenreCardComponent</title>
<polygon fill="#ffffb3" stroke="black" points="1425.24,-84.8 1282.76,-84.8 1282.76,-48.8 1425.24,-48.8 1425.24,-84.8"/>
<text text-anchor="middle" x="1354" y="-62.6" font-family="Times,serif" font-size="14.00">GenreCardComponent</text>
</g>
<!-- GenreCardComponent&#45;&gt;AppModule -->
<g id="edge4" class="edge">
<title>GenreCardComponent&#45;&gt;AppModule</title>
<path fill="none" stroke="black" d="M1354,-85.04C1354,-100.37 1354,-119.8 1354,-119.8 1354,-119.8 1162.77,-119.8 1162.77,-119.8"/>
<polygon fill="black" stroke="black" points="1162.77,-116.3 1152.77,-119.8 1162.77,-123.3 1162.77,-116.3"/>
</g>
<!-- MovieCardComponent -->
<g id="node5" class="node">
<title>MovieCardComponent</title>
<polygon fill="#ffffb3" stroke="black" points="1264.59,-84.8 1119.41,-84.8 1119.41,-48.8 1264.59,-48.8 1264.59,-84.8"/>
<text text-anchor="middle" x="1192" y="-62.6" font-family="Times,serif" font-size="14.00">MovieCardComponent</text>
</g>
<!-- MovieCardComponent&#45;&gt;AppModule -->
<g id="edge5" class="edge">
<title>MovieCardComponent&#45;&gt;AppModule</title>
<path fill="none" stroke="black" d="M1136.14,-84.91C1136.14,-84.91 1136.14,-103.79 1136.14,-103.79"/>
<polygon fill="black" stroke="black" points="1132.64,-103.79 1136.14,-113.79 1139.64,-103.79 1132.64,-103.79"/>
</g>
<!-- NavigationComponent -->
<g id="node6" class="node">
<title>NavigationComponent</title>
<polygon fill="#ffffb3" stroke="black" points="1101.54,-84.8 958.46,-84.8 958.46,-48.8 1101.54,-48.8 1101.54,-84.8"/>
<text text-anchor="middle" x="1030" y="-62.6" font-family="Times,serif" font-size="14.00">NavigationComponent</text>
</g>
<!-- NavigationComponent&#45;&gt;AppModule -->
<g id="edge6" class="edge">
<title>NavigationComponent&#45;&gt;AppModule</title>
<path fill="none" stroke="black" d="M1085.47,-84.91C1085.47,-84.91 1085.47,-103.79 1085.47,-103.79"/>
<polygon fill="black" stroke="black" points="1081.97,-103.79 1085.47,-113.79 1088.97,-103.79 1081.97,-103.79"/>
</g>
<!-- SynopsisCardComponent -->
<g id="node7" class="node">
<title>SynopsisCardComponent</title>
<polygon fill="#ffffb3" stroke="black" points="940.61,-84.8 781.39,-84.8 781.39,-48.8 940.61,-48.8 940.61,-84.8"/>
<text text-anchor="middle" x="861" y="-62.6" font-family="Times,serif" font-size="14.00">SynopsisCardComponent</text>
</g>
<!-- SynopsisCardComponent&#45;&gt;AppModule -->
<g id="edge7" class="edge">
<title>SynopsisCardComponent&#45;&gt;AppModule</title>
<path fill="none" stroke="black" d="M861,-85.04C861,-100.37 861,-119.8 861,-119.8 861,-119.8 1059.16,-119.8 1059.16,-119.8"/>
<polygon fill="black" stroke="black" points="1059.16,-123.3 1069.16,-119.8 1059.16,-116.3 1059.16,-123.3"/>
</g>
<!-- UserLoginFormComponent -->
<g id="node8" class="node">
<title>UserLoginFormComponent</title>
<polygon fill="#ffffb3" stroke="black" points="763.54,-84.8 592.46,-84.8 592.46,-48.8 763.54,-48.8 763.54,-84.8"/>
<text text-anchor="middle" x="678" y="-62.6" font-family="Times,serif" font-size="14.00">UserLoginFormComponent</text>
</g>
<!-- UserLoginFormComponent&#45;&gt;AppModule -->
<g id="edge8" class="edge">
<title>UserLoginFormComponent&#45;&gt;AppModule</title>
<path fill="none" stroke="black" d="M678,-84.82C678,-102.17 678,-125.8 678,-125.8 678,-125.8 1059.09,-125.8 1059.09,-125.8"/>
<polygon fill="black" stroke="black" points="1059.09,-129.3 1069.09,-125.8 1059.09,-122.3 1059.09,-129.3"/>
</g>
<!-- UserProfileComponent -->
<g id="node9" class="node">
<title>UserProfileComponent</title>
<polygon fill="#ffffb3" stroke="black" points="573.86,-84.8 428.14,-84.8 428.14,-48.8 573.86,-48.8 573.86,-84.8"/>
<text text-anchor="middle" x="501" y="-62.6" font-family="Times,serif" font-size="14.00">UserProfileComponent</text>
</g>
<!-- UserProfileComponent&#45;&gt;AppModule -->
<g id="edge9" class="edge">
<title>UserProfileComponent&#45;&gt;AppModule</title>
<path fill="none" stroke="black" d="M501,-84.91C501,-104.14 501,-131.8 501,-131.8 501,-131.8 1059.07,-131.8 1059.07,-131.8"/>
<polygon fill="black" stroke="black" points="1059.07,-135.3 1069.07,-131.8 1059.07,-128.3 1059.07,-135.3"/>
</g>
<!-- UserRegistrationFormComponent -->
<g id="node10" class="node">
<title>UserRegistrationFormComponent</title>
<polygon fill="#ffffb3" stroke="black" points="410.03,-84.8 203.97,-84.8 203.97,-48.8 410.03,-48.8 410.03,-84.8"/>
<text text-anchor="middle" x="307" y="-62.6" font-family="Times,serif" font-size="14.00">UserRegistrationFormComponent</text>
</g>
<!-- UserRegistrationFormComponent&#45;&gt;AppModule -->
<g id="edge10" class="edge">
<title>UserRegistrationFormComponent&#45;&gt;AppModule</title>
<path fill="none" stroke="black" d="M307,-85.08C307,-106.12 307,-137.8 307,-137.8 307,-137.8 1059.19,-137.8 1059.19,-137.8"/>
<polygon fill="black" stroke="black" points="1059.19,-141.3 1069.19,-137.8 1059.19,-134.3 1059.19,-141.3"/>
</g>
<!-- WelcomePageComponent -->
<g id="node11" class="node">
<title>WelcomePageComponent</title>
<polygon fill="#ffffb3" stroke="black" points="186.18,-84.8 23.82,-84.8 23.82,-48.8 186.18,-48.8 186.18,-84.8"/>
<text text-anchor="middle" x="105" y="-62.6" font-family="Times,serif" font-size="14.00">WelcomePageComponent</text>
</g>
<!-- WelcomePageComponent&#45;&gt;AppModule -->
<g id="edge11" class="edge">
<title>WelcomePageComponent&#45;&gt;AppModule</title>
<path fill="none" stroke="black" d="M105,-85.05C105,-107.82 105,-143.8 105,-143.8 105,-143.8 1059.05,-143.8 1059.05,-143.8"/>
<polygon fill="black" stroke="black" points="1059.05,-147.3 1069.05,-143.8 1059.05,-140.3 1059.05,-147.3"/>
</g>
<!-- AppComponent  -->
<g id="node14" class="node">
<title>AppComponent </title>
<polygon fill="#80b1d3" stroke="black" points="1165.44,-214.8 1056.56,-214.8 1056.56,-178.8 1165.44,-178.8 1165.44,-214.8"/>
<text text-anchor="middle" x="1111" y="-192.6" font-family="Times,serif" font-size="14.00">AppComponent </text>
</g>
<!-- AppModule&#45;&gt;AppComponent  -->
<g id="edge13" class="edge">
<title>AppModule&#45;&gt;AppComponent </title>
<path fill="none" stroke="black" stroke-dasharray="1,5" d="M1111,-149.91C1111,-149.91 1111,-168.79 1111,-168.79"/>
<polygon fill="black" stroke="black" points="1107.5,-168.79 1111,-178.79 1114.5,-168.79 1107.5,-168.79"/>
</g>
<!-- AppRoutingModule -->
<g id="node13" class="node">
<title>AppRoutingModule</title>
<polygon fill="#8dd3c7" stroke="black" points="2065.27,-84.8 2062.27,-88.8 2041.27,-88.8 2038.27,-84.8 1936.73,-84.8 1936.73,-48.8 2065.27,-48.8 2065.27,-84.8"/>
<text text-anchor="middle" x="2001" y="-62.6" font-family="Times,serif" font-size="14.00">AppRoutingModule</text>
</g>
<!-- AppRoutingModule&#45;&gt;AppModule -->
<g id="edge12" class="edge">
<title>AppRoutingModule&#45;&gt;AppModule</title>
<path fill="none" stroke="black" d="M2001,-85.05C2001,-107.82 2001,-143.8 2001,-143.8 2001,-143.8 1162.73,-143.8 1162.73,-143.8"/>
<polygon fill="black" stroke="black" points="1162.73,-140.3 1152.73,-143.8 1162.73,-147.3 1162.73,-140.3"/>
</g>
</g>
</svg>
